<?xml version="1.0" standalone="no"?>
<!DOCTYPE svg PUBLIC "-//W3C//DTD SVG 1.1//EN" "http://www.w3.org/Graphics/SVG/1.1/DTD/svg11.dtd" >
<svg xmlns="http://www.w3.org/2000/svg" xmlns:xlink="http://www.w3.org/1999/xlink" version="1.1">
<metadata></metadata>
<defs>
<font id="kestoy_selfiekestoy_selfie" horiz-adv-x="1107" >
<font-face units-per-em="2048" ascent="1536" descent="-512" />
<missing-glyph horiz-adv-x="503" />
<glyph horiz-adv-x="0" />
<glyph unicode="&#xd;" horiz-adv-x="503" />
<glyph horiz-adv-x="0" />
<glyph horiz-adv-x="0" />
<glyph unicode=" "  horiz-adv-x="503" />
<glyph unicode="&#x09;" horiz-adv-x="503" />
<glyph unicode="&#xa0;" horiz-adv-x="503" />
<glyph unicode="A" d="M12 654q12 50 50 86q28 28 71 28q12 0 25 -2q51 119 126.5 243t173 226t214 171t250.5 75h11q65 0 97 -43q34 -47 48 -115q9 -50 9 -102q1 -19 -1 -39q-4 -72 -9 -117q-16 -139 -37.5 -269t-44.5 -261q45 -31 63 -66q15 -28 15 -52q0 -7 -1 -13q-5 -30 -33.5 -52 t-73.5 -24q-12 -53 -15.5 -122t-14.5 -130.5t-41 -103.5q-27 -38 -82 -38h-11q-45 8 -70.5 38t-39 73t-16.5 94q-2 26 -1.5 50.5t1.5 48.5q3 48 7 90.5t6 66.5q-33 10 -75 20.5t-88 18.5t-91 14.5t-84 8.5q-29 -102 -37 -196.5t-22.5 -168.5t-49 -119t-116.5 -45 q-49 6 -73 45t-32 95q-4 33 -5 69q1 27 3 55q6 66 16.5 127.5t24 110.5t21.5 70q-48 10 -64 57q-9 27 -9 55q0 20 5 42zM428 709q86 -16 164 -35.5t135 -46.5q14 82 27.5 154.5t27 141t27.5 138t33 147.5q-68 -37 -133.5 -95t-121 -126.5t-97 -141.5t-62.5 -136z" />
<glyph unicode="B" d="M8 113q0 90 15.5 196.5t41 220t57.5 231.5t62 232q12 43 12 84v15q-2 48 -38 90q-20 35 -19.5 60t27.5 58q68 66 148.5 109t166.5 63q66 15 131 14q20 0 40 -1q85 -6 163 -37q74 -37 115 -102.5t49 -142.5q2 -20 2 -39q1 -58 -17 -118q-24 -80 -79 -145q96 -25 139 -97.5 t48 -162.5q1 -15 0 -31q0 -75 -20 -150q-24 -91 -63 -151q-137 -199 -324.5 -295t-443.5 -118q-49 4 -89 16t-67.5 36.5t-42 64.5t-14.5 100zM293 188q-2 -18 18.5 -19t55 10t80 32.5t90.5 48.5t85 57.5t66 59.5q55 47 81 111q20 51 20 106q0 15 -1 29q-4 61 -44 69 q-9 2 -17 2q-32 0 -68 -22q-29 -18 -68.5 -39t-81.5 -40.5t-81 -37.5t-66 -33q-16 -90 -34.5 -175t-34.5 -159zM426 813q63 27 107.5 57.5t84.5 69.5q63 58 81 124q9 34 9 62t-8 50q-18 46 -68 54q-7 1 -14 1q-46 0 -108 -47q-16 -76 -38.5 -174.5t-45.5 -196.5z" />
<glyph unicode="C" horiz-adv-x="1138" d="M7 462q3 124 32 226q31 106 69.5 195.5t88 164t111 140t138.5 127.5q88 75 203 111q80 25 157 25q34 0 66 -5q130 -20 194 -104q52 -68 51 -176q0 -27 -3 -56q-12 -117 -61 -212t-125 -171q-8 -10 -19.5 -16t-21.5 -11q-24 -10 -44 -10q-25 0 -44 15q-35 28 -37 94 q0 63 22.5 115.5t57.5 99.5q14 16 29.5 31.5t29.5 31.5q14 20 8 49t-24 43q-30 23 -62 23q-14 0 -28 -4q-27 -10 -54.5 -20.5t-50.5 -26.5q-166 -111 -262 -276t-137 -376q-5 -32 -5 -64.5t5 -66.5q8 -78 50 -121.5t112 -48.5q29 0 56.5 5.5t55.5 15.5q66 23 126.5 62.5 t115.5 86.5q53 43 101 89.5t98 91.5q23 20 47 37.5t51 31.5q8 6 20.5 4t20.5 -8q8 -8 12 -22.5t0 -24.5q-10 -29 -18.5 -56.5t-22.5 -51.5q-78 -127 -169 -235t-210 -185q-84 -55 -163 -81t-177 -28q-10 -1 -20 -1q-64 1 -116 23q-60 26 -105 70.5t-76 102t-47 118.5 q-26 96 -26 206v23z" />
<glyph unicode="D" horiz-adv-x="1122" d="M20 127q-4 39 -4 82q0 53 6 113q12 106 37 216.5t58 222t61 214.5q10 38 10 69q0 18 -3 33q-9 43 -50 107q-16 23 -7 56.5t38 55.5q72 57 159 93q87 35 176 51q75 13 145 14q14 0 27 -1q83 -3 148 -23q150 -43 232 -134q81 -92 109 -206q16 -67 17 -138q-1 -50 -9 -102 q-20 -125 -70 -238q-55 -125 -131 -246.5t-174.5 -219t-219 -161t-264.5 -69.5q-13 -1 -26 -1q-43 1 -81 11q-50 14 -89 41t-63.5 68t-31.5 92zM311 274q-2 -37 8.5 -55t29 -21t42 6t45.5 27q68 37 133.5 106t123 155t100.5 182t65 188q18 52 18 99q0 35 -10 67 q-24 74 -80 116q-54 42 -128 47q-8 1 -16 1q-65 0 -126 -39q-18 -115 -51 -245t-65.5 -251.5t-58.5 -223t-30 -159.5z" />
<glyph unicode="E" d="M12 170q-2 29 -2 56q0 34 3 64q5 54 16.5 106.5t25 105.5t25.5 116q-23 23 -38 51.5t-12 57.5t28.5 53.5t86.5 38.5q8 25 24.5 75t31 107.5t23.5 109.5q6 36 6 59q0 10 -1 18q-2 13 -2 25q0 49 41 75q43 33 86 53q125 61 252 97.5t256 50.5q24 2 50 2t52 -2 q54 -4 101 -19.5t86 -45t59 -74.5q8 -22 8 -40q0 -14 -5 -27q-11 -28 -42 -34q-21 1 -42 1q-108 0 -228 -18q-143 -20 -285 -89q-43 -20 -67.5 -38t-39.5 -39.5t-24.5 -51t-23.5 -74.5q-4 -16 -8.5 -41.5t-10.5 -48.5q41 6 111 18q69 11 137 18q52 5 94 5h23q49 -2 51 -23 q2 -13 2 -26q0 -42 -26 -75q-34 -44 -95 -67q-31 -12 -80 -25t-102 -25.5t-103.5 -24t-80.5 -21.5q-8 -27 -20.5 -69.5t-24 -90t-18.5 -94.5q-5 -33 -5 -60q0 -12 1 -23q3 -36 18.5 -55t50.5 -11q92 31 167.5 62.5t142.5 66.5t128 73.5t125 88.5q25 23 49.5 43t40.5 27 t24.5 -6t0.5 -58q-10 -47 -29.5 -88t-44.5 -76q-57 -82 -127 -146.5t-146.5 -114.5t-157.5 -90t-161 -73q-53 -17 -101 -17q-22 -1 -42 3q-66 12 -116 50t-81 97t-35 127z" />
<glyph unicode="F" horiz-adv-x="868" d="M6 158q4 96 21 180q10 59 22 116.5t25 114.5q-10 25 -20.5 50.5t-10.5 50t15.5 46t56.5 38.5q16 66 29.5 121t29.5 118q12 49 16 97q1 11 2 23q0 38 -12 81q-10 42 -10 68q0 14 3 24q9 26 56 49q98 43 197.5 79t199.5 54q82 15 162 16q18 0 36 -1q98 -4 192 -39 q61 -29 112.5 -74t75.5 -106q14 -31 4 -57.5t-39 -28.5q-27 -2 -52 2t-52 8q-49 6 -125 6t-157 -7t-155.5 -20.5t-119.5 -31.5q-16 -76 -40 -168.5t-40 -192.5q41 2 93 6q35 3 58 3q12 0 21 -1q72 -10 122 -25.5t99 -60.5q25 -20 25 -39.5t-13.5 -37t-34 -28.5t-38.5 -18 q-102 -16 -203.5 -23t-194.5 -34q-18 -41 -31.5 -104.5t-26.5 -133t-26.5 -138t-31.5 -120.5q-6 -25 -14.5 -53t-21.5 -52t-33.5 -38t-53.5 -8q-35 8 -56.5 36.5t-35.5 69.5q-25 76 -25 159v24z" />
<glyph unicode="G" horiz-adv-x="1118" d="M3 551q7 98 31.5 192.5t57.5 171.5q70 178 199 305.5t281 182.5q107 39 215 39q46 0 93 -8q154 -23 273 -142q41 -41 41 -75q0 -37 -30 -61q-27 -21 -72 -28q-12 -1 -25 -1q-32 0 -63 12q-78 26 -152 26q-13 0 -26 -1q-85 -5 -158.5 -36.5t-135 -85t-106.5 -118.5 q-29 -45 -55.5 -107.5t-46 -132.5t-27.5 -142q-4 -35 -4 -69t4 -65q8 -64 38 -114t85 -75q65 -24 115 -24q27 0 49 7q63 19 102 73.5t59.5 131t36.5 154.5q-12 2 -32.5 6t-43 9.5t-43 10.5t-32.5 5q-87 46 -87 86q0 43 68 72q64 28 164 40q56 7 111 7q44 0 88 -4 q57 -4 87 -31q28 -25 28 -84v-8q-14 -104 -26.5 -189.5t-27 -164t-33 -158.5t-45.5 -174q-8 -45 -35.5 -75t-66.5 -37q-10 -2 -21 -2q-30 0 -62 14q-44 20 -85 75q-31 -8 -75 -16.5t-91 -13.5q-34 -4 -67 -4q-13 0 -26 1q-46 2 -81 13q-106 31 -177 93t-109.5 145t-51.5 179 q-9 64 -9 128q0 34 2 67z" />
<glyph unicode="H" horiz-adv-x="1187" d="M8 716q-4 10 -3 22q0 24 13 55q8 23 21.5 42t30.5 23q47 10 68.5 44t37.5 75q25 72 57.5 158t76.5 160.5t105.5 129t145.5 60.5q63 -2 83 -38q16 -29 16 -66v-17q-4 -47 -21.5 -93t-26.5 -71q-43 -98 -69.5 -184t-46.5 -174q72 -29 141.5 -53.5t150.5 -53.5q20 76 53 165 t74 178t90.5 173t104.5 150q16 18 43 34.5t57.5 24.5t60 3t54.5 -27q27 -23 35 -50.5t6 -57.5t-11 -57.5t-20 -47.5q-29 -68 -61.5 -147t-63 -159.5t-58.5 -161.5t-46 -153q27 -25 35 -53.5t1 -55t-31 -47t-60 -26.5q-35 -125 -37 -241t-4 -242q2 -39 -33 -47q-9 -2 -19 -3 l-51 17q-66 57 -100.5 128.5t-51 151.5t-17.5 162v33q0 65 3 129q-90 33 -171 48t-160 22q-60 -212 -66 -396q-1 -42 -1 -82q0 -137 17 -256q-4 -47 -34 -55q-7 -2 -14 -2q-25 0 -58 20q-35 23 -60.5 57t-46.5 70q-37 80 -53 177.5t-21 192.5q-3 59 -3 114q0 33 1 64 q3 83 9 134q-2 2 -3 8.5t-3 10.5q-56 51 -66 81z" />
<glyph unicode="I" horiz-adv-x="403" d="M22 298q-1 29 -1 58q-1 135 15 275q18 170 54.5 329.5t85.5 274.5q18 41 40 86t48 80t60 53q22 12 48 12q16 0 34 -4q57 -12 82.5 -45t30.5 -71q2 -12 2 -25q0 -27 -8 -53q-11 -39 -26 -64q-63 -135 -108 -298t-73 -324q-26 -162 -36 -312q-5 -81 -6 -150q0 -58 4 -108 q-6 -31 -32.5 -45t-59.5 -13t-65.5 16.5t-51.5 45.5q-33 119 -37 282z" />
<glyph unicode="J" horiz-adv-x="802" d="M8 8q-5 28 -5 58t5 60q10 62 35 114.5t60.5 91.5t78.5 51q23 8 39.5 -11.5t11.5 -49.5q-4 -35 -10 -69t-8 -69q0 -39 12.5 -59.5t30.5 -24.5t38.5 8.5t37.5 41.5q23 27 45 90t43.5 149t44 187.5t47.5 208t52.5 209t60.5 188.5q-35 7 -74 7q-26 0 -54 -3 q-69 -8 -133.5 -32t-114.5 -61.5t-71 -84.5q-14 -16 -32.5 -10t-28.5 30q-18 43 -21 92q-1 12 -1 24q0 37 7 74q11 48 32.5 92t51.5 79q57 63 144 89q71 20 148 20q19 0 37 -1q97 -6 191.5 -40t168.5 -85q51 -32 51 -78q0 -26 -15 -55q-43 -111 -75.5 -247t-61 -275 t-58.5 -270.5t-67 -231.5q-25 -68 -54.5 -137.5t-69.5 -130t-93 -107.5t-123 -71q-25 -8 -51 -8q-22 0 -45 6q-49 12 -91 45.5t-73 84t-43 111.5z" />
<glyph unicode="K" horiz-adv-x="1019" d="M11.5 649.5q-5.5 32.5 13 59t49 44t49.5 23.5q47 162 96 302.5t115 244.5q45 82 103.5 117t162.5 43q8 1 16 1q36 0 54 -16q22 -18 26 -51q1 -9 1 -18q0 -26 -8 -59q-11 -44 -28.5 -88t-38 -83t-36.5 -65q-41 -82 -82.5 -155.5t-61.5 -151.5q119 35 237 109.5t218 167.5 t174 194.5t105 191.5q14 16 31.5 26.5t41.5 -5.5q29 -23 46.5 -57.5t25.5 -72.5t8 -75t-6 -64q-33 -102 -101.5 -190t-159.5 -165t-196.5 -142.5t-212.5 -118.5q37 -172 88.5 -308t123 -230.5t166.5 -144.5t218 -50q16 -10 19.5 -31.5t-8.5 -36.5q-102 -34 -199 -34 q-53 1 -107 11q-148 30 -269.5 128t-208.5 258.5t-120 369.5q-29 -72 -48 -149.5t-33.5 -157.5t-25.5 -158.5t-20 -150.5q-2 -12 -19 -20.5t-40 -12.5t-43.5 -3t-28.5 9q-25 18 -37 64.5t-17 108.5q-4 51 -4 110v24q1 72 6 143t11 136.5t13 112.5q-53 33 -58.5 65.5z" />
<glyph unicode="L" horiz-adv-x="1265" d="M9 48q11 58 40 113.5t64 71.5q27 6 48 2.5t54 4.5q43 88 76 194.5t62.5 218l59 223t65.5 209t81 176t109 123.5q74 61 156 75q28 5 54 5q52 0 100 -19q71 -28 118 -90.5t51 -154.5q0 -61 -19.5 -126.5t-53.5 -113.5q-34 -46 -80 -66q-17 -7 -35 -8q-31 0 -66 21 q-35 35 -37 67t11.5 60.5t36 56t34.5 56.5q8 37 -4 61.5t-37 26.5t-57.5 -24.5t-65.5 -92.5q-45 -98 -77.5 -214t-62.5 -235.5t-63.5 -240.5t-83.5 -231q59 -5 134 -17q60 -10 124 -9h31q80 3 162 31.5t158 108.5q16 18 37.5 36t39 23t26.5 -6.5t3 -50.5q-10 -43 -23.5 -87 t-31.5 -83q-33 -72 -68 -119t-84 -73.5t-117 -32.5q-26 -2 -56 -2q-50 0 -113 6q-82 4 -162 17.5t-159 20.5q-43 4 -85 4q-37 0 -73 -3q-80 -6 -162 -39q-11 -4 -21 -4q-27 0 -37 31q-7 22 -6 48q0 24 5 51z" />
<glyph unicode="M" horiz-adv-x="1470" d="M18 127q-1 21 -1 42q0 120 29 253q34 156 94.5 309.5t138 295.5t157.5 253q29 37 62.5 73t70.5 63.5t77 43.5q35 14 73 13h10q49 -6 81 -41t40 -97q2 -30 2 -57q0 -42 -4 -80q-6 -63 -15.5 -125.5t-18.5 -125t-15 -132.5q27 39 55.5 84t57 91t56 90t56.5 81 q43 55 85 109.5t89 97.5q46 42 100 68q50 24 108 24h9q80 -10 122 -76q38 -61 38 -150v-17q0 -25 -4 -54.5t-10.5 -60.5t-12.5 -60.5t-12 -52.5q-33 -119 -72 -234.5t-72.5 -231t-55.5 -230.5q-18 -97 -18 -195q0 -18 1 -37q1 -14 1 -27q0 -46 -12 -72q-14 -34 -44 -44 q-17 -6 -34 -6q-25 0 -51 12q-44 20 -69 68q-54 115 -54 249q0 137 30 281q30 140 72 272t71 240q-59 -70 -122 -169t-122 -206.5t-115.5 -213t-101.5 -187.5q-14 -27 -34.5 -73t-47.5 -86q-26 -41 -60 -63q-17 -12 -37 -11q-18 0 -36 10q-39 23 -47 66.5t-17 91.5 q-5 53 -5 112q0 41 2 85q6 106 18 215.5t30.5 219t36.5 205.5q-72 -86 -131 -191.5t-105 -221t-78 -238.5t-44 -248q-2 -20 -4 -55t-8 -68t-21.5 -57.5t-44.5 -24.5q-37 8 -59.5 29.5t-34.5 49.5t-16.5 60.5t-6.5 61.5z" />
<glyph unicode="N" horiz-adv-x="1329" d="M7 244q1 78 14.5 157.5t29.5 157.5q37 127 91.5 268.5t123 266.5t147.5 219t165 127q23 10 42 10q26 0 44 -17q32 -30 50.5 -81.5t26 -107.5t9.5 -87q4 -156 22.5 -296t22.5 -294q0 -27 3 -74t13 -86.5t27.5 -57t46.5 15.5q57 78 92 184t59.5 227t46 249t52.5 249 q6 27 20 67.5t34.5 69.5t45.5 30h1q25 0 50 -52q20 -41 30 -95q11 -54 15 -110q3 -44 3 -88v-22q-1 -54 -1 -95q-4 -197 -47 -369t-112 -329q-37 -72 -72 -122t-69 -88t-65.5 -64.5t-60.5 -47.5q-37 -27 -79 -29h-8q-38 0 -74 16q-40 18 -75.5 56.5t-60.5 91.5 q-41 100 -56 202q-14 104 -18 208q-2 61 -3 121q-1 43 1 87q1 23 1 46q0 82 -7 164q-35 -37 -68.5 -97.5t-65.5 -132t-58.5 -150.5t-48 -154t-36.5 -142.5t-22 -114.5q-4 -20 -12 -69.5t-25.5 -91.5t-43.5 -55q-5 -3 -11 -3q-22 0 -53 39q-46 67 -62 141q-16 69 -15 143v9z " />
<glyph unicode="O" horiz-adv-x="1081" d="M16 387q-3 48 -3 96q1 81 9 164q14 131 50.5 253t101 229.5t160.5 193.5q61 57 136 88t159 41h17q130 0 218 -56q94 -60 148 -162q54 -100 68 -234q6 -58 6 -117q0 -77 -11 -156q-8 -111 -37.5 -227.5t-82 -223t-123 -193.5t-157.5 -136t-191 -51h-6q-101 0 -214 61 q-217 147 -248 430zM309 472q0 -79 15 -140q29 -98 81 -140q28 -23 60 -23q27 0 57 17q72 43 131.5 134.5t96.5 205.5q38 114 54 238q8 65 8 126q0 55 -7 107q0 23 -6 47q-17 84 -61 120q-28 22 -61 22q-21 0 -44 -8q-61 -31 -112.5 -87.5t-90.5 -130t-65.5 -157.5t-41 -168 t-14.5 -163z" />
<glyph unicode="P" horiz-adv-x="954" d="M30 376q9 128 28.5 255t41 252t33.5 247q1 14 1 27q0 26 -3 51q-4 37 -31 76q-21 38 -21 64q1 4 1 8q4 28 29 51q43 31 101 47t122 20q24 2 49 2q41 0 83 -4q66 -8 130 -24q80 -18 156.5 -64.5t135 -115t93.5 -161.5q33 -88 33 -196v-12v-19q0 -126 -48 -222 q-52 -102 -143.5 -162t-213.5 -72q-27 -3 -54 -3q-98 0 -205 34q-6 -47 -14 -103.5t-16.5 -114t-16.5 -110.5t-14 -92q-4 -29 -12.5 -50.5t-20.5 -43.5q-27 -41 -58 -41q-6 0 -10 1q-36 7 -69 41.5t-56.5 86t-25.5 90.5q-9 79 -9 157q0 50 4 100zM387 686q41 -10 84 -15 q35 -4 67 -5q6 0 13 1q37 1 67.5 12t47.5 34q35 35 54 85t22 105v18q0 47 -12 91q-15 54 -49 96t-88 64q-43 18 -99 17q-15 0 -31 -1q-6 -53 -17.5 -124t-23.5 -143.5t-22.5 -135t-12.5 -99.5z" />
<glyph unicode="Q" horiz-adv-x="1243" d="M2 18q2 37 8 60.5t22.5 39t46.5 28t79 26.5q-20 94 -33.5 183t-14.5 175v13q0 80 11 159q12 86 43 177q43 119 105.5 232.5t149.5 198.5t199 129q77 30 165 30q42 0 87 -7q131 -23 220.5 -119t117.5 -247q25 -127 25 -248q0 -84 -12 -166q-20 -117 -56.5 -227.5 t-89.5 -208.5q-57 -100 -132 -177t-171 -130q-10 -4 -15 -8.5t-14 -8.5q-2 -2 -4 -6t-10 -18q29 -29 53.5 -55.5t51.5 -49.5q45 -44 97 -44q26 0 54 11q12 4 24.5 12.5t24.5 14.5q16 4 31.5 7t30.5 -21q10 -16 7 -36t-13 -36q-12 -16 -24.5 -30.5t-29.5 -24.5 q-68 -45 -144 -64q-34 -8 -70 -8q-46 0 -97 14q-86 27 -162 69t-141 116q-37 41 -72 79.5t-69 79.5q-51 53 -107 77q-28 12 -58 12t-61 -11q-10 -4 -24.5 1t-28.5 7zM398 438q-2 -28 -2 -54q0 -66 14 -116q29 -86 90 -118q29 -14 59 -14q34 0 70 18q76 47 140.5 147 t108.5 223t64 254q12 81 12 152q0 43 -4 82q-2 12 -3 25.5t-3 25.5q-23 92 -74 117q-31 16 -65 16q-21 0 -43 -6q-57 -16 -111.5 -61.5t-83.5 -94.5q-43 -74 -79.5 -176t-59 -210.5t-30.5 -209.5z" />
<glyph unicode="R" horiz-adv-x="1019" d="M37 559q14 49 80 96q25 92 48 183.5t40 189.5q4 33 -2 61.5t-33 57.5q-27 33 -31 65q-1 8 -1 17q0 24 8 47q12 31 34.5 56.5t50.5 43.5q94 47 212 73q97 21 191 22q20 1 40 -1q112 -6 208.5 -47t151.5 -127q58 -94 60 -208q0 -7 -1 -13q0 -107 -36 -211 q-39 -112 -112 -209.5t-165 -158.5q12 -141 40 -247t76 -181.5t121 -123.5t177 -73q33 -8 55.5 -11t35.5 -7.5t17.5 -11.5t2.5 -23q-4 -16 -27 -29.5t-59.5 -24t-81.5 -13.5q-15 -1 -30 -1l-60 4q-240 31 -388.5 197t-185.5 479q-35 -4 -57.5 -4t-53.5 -2 q-33 -88 -47 -193.5t-18 -203.5q0 -55 -37 -71q-16 -7 -35 -8q-23 0 -48 12q-46 20 -86 77t-42 147q-3 23 -3 50q0 36 6 78q11 73 26 139q-44 47 -44 88q0 10 3 20zM424 684q59 4 121.5 28.5t117 67.5t93.5 102.5t51 133.5q4 28 4 51q-1 43 -15 68q-22 39 -62 48 q-18 4 -37 4q-25 -1 -53 -7q-50 -12 -89 -31q-16 -47 -33.5 -104.5t-35 -119t-34 -124t-28.5 -117.5z" />
<glyph unicode="S" horiz-adv-x="1054" d="M16 186q8 45 33 92.5t60.5 87.5t83 67.5t102.5 37.5q18 4 33.5 -15.5t11.5 -41.5q-6 -43 -25.5 -77t-35.5 -73q-12 -37 -6 -59.5t23 -30.5t44 -5t53 17q86 47 163 108.5t149 135.5q23 25 40 52.5t27 64.5q6 29 -4 52.5t-33 27.5q-36 6 -71 6l-27 -1q-49 -3 -97 -9.5 t-96 -11.5q-27 -3 -55 -3q-22 0 -43 2q-47 4 -82 29t-56 65q-22 40 -27 90q-1 15 -1 30q0 37 8 77q37 123 125 234.5t200 194.5q113 83 235 128q104 38 198 38q17 0 33 -1q51 -2 87 -26.5t54.5 -62.5t18.5 -88t-21 -106q-16 -43 -50 -77.5t-69 -57.5q-23 -15 -41 -15 q-37 0 -55 64q-4 16 -6 32.5t-6 39.5q-12 18 -54 8t-95.5 -38.5t-106.5 -70.5t-88 -85q-18 -12 -32.5 -31.5t-17.5 -37t8 -29t48 -7.5q41 4 100.5 4t100.5 -4q68 -4 121 -32.5t87 -80.5t48 -120q7 -36 8 -76q0 -36 -6 -76q-12 -86 -49 -164.5t-82 -140.5q-98 -137 -216 -230 t-264 -130q-53 -12 -102 -12q-33 0 -65 6q-78 14 -132 57q-54 44 -78 114q-15 43 -14 93q0 34 6 71z" />
<glyph unicode="T" horiz-adv-x="727" d="M10 1135q10 51 69.5 94t147.5 78.5t198 65.5t220.5 50.5t214 33.5t180.5 20q28 2 51 2t39 -2q33 -4 53.5 -17.5t35 -37t32.5 -56.5q32 -75 32 -118q0 -10 -2 -18q-9 -44 -75 -61q-69 -12 -149 -12q-25 0 -51.5 1t-52.5 1q-85 0 -171 -12q-72 -102 -124 -236.5t-86.5 -287 t-56 -316.5t-32.5 -321q-6 -39 -19 -70t-50 -35h-6q-39 -1 -68 25q-31 28 -50.5 68t-30.5 84t-15 73q-3 20 -3 54.5t3 84.5q6 100 30.5 238.5t71.5 299.5t125 318q-12 1 -27 1q-29 0 -65 -3q-55 -4 -110.5 -10t-102.5 -14t-70 -15q-14 -4 -32.5 -5t-32 4.5t-20.5 17.5t-1 33 z" />
<glyph unicode="U" horiz-adv-x="1087" d="M10 566q6 130 31 262.5t63.5 264.5t85.5 259q34 72 94 90q17 5 37 5q49 0 115 -32q39 -23 58.5 -48.5t24.5 -52t-1 -54t-16 -52.5q-47 -104 -84 -214.5t-61.5 -215t-38.5 -198.5q-10 -73 -10 -131q0 -17 1 -33q-1 -12 -1 -24q0 -58 16 -106q20 -60 54 -88q25 -21 56 -20 q11 0 22 2q44 10 91 80q41 51 69.5 128t51 170t40 195.5t36 204t39 196.5t46.5 171q23 70 77 80q13 2 27 2q46 0 105 -25q49 -24 78 -62q27 -36 27 -86v-7q-2 -18 -7.5 -43t-11.5 -50.5t-12 -50t-10 -39.5q-47 -131 -84 -291.5t-58.5 -311t-22.5 -269.5v-9q0 -112 24 -155 q6 -23 -13 -43q-20 -21 -53 -31q-22 -7 -47 -7q-12 0 -25 2q-39 5 -73 34q-42 37 -56 87q-13 44 -12 90v12q-29 -43 -55.5 -82t-59 -71t-74.5 -52.5t-98 -24.5h-16q-75 0 -135 33q-66 37 -114 95.5t-75.5 129t-34.5 133.5q-12 89 -12 183q0 35 2 70z" />
<glyph unicode="V" horiz-adv-x="950" d="M21 379q8 121 26.5 256t40 274.5t37.5 264.5q10 45 19.5 90t23.5 88q29 94 106 121q14 3 26 3q36 0 57 -26q28 -35 40.5 -87t13.5 -106.5t1 -80.5q-8 -215 -44 -418t-83 -404q-15 -66 -15 -106q0 -36 14 -50q6 -6 14 -6q32 0 101 78q76 88 133.5 189.5t100.5 214 t76.5 232.5t66.5 247q12 49 21.5 99.5t19.5 97.5q16 88 52 118q24 20 50 19q13 -1 26 -5q40 -14 77 -65t59 -123q11 -33 11 -82q0 -34 -5 -74q-12 -100 -42.5 -212.5t-73.5 -222t-84 -185.5q-53 -96 -106.5 -183t-115 -161t-136 -134t-171.5 -106q-44 -22 -88 -22h-18 q-53 6 -98 39t-80 89t-49 130q-7 53 -7 117q0 44 3 92z" />
<glyph unicode="W" horiz-adv-x="1366" d="M16 454q14 148 42 294q28 148 56 298q24 131 24 271q0 20 -1 41q10 60 39 80q19 14 47 13q13 0 29 -3q86 -56 116 -154q30 -95 31 -210q0 -4 -1 -8q-1 -120 -24.5 -250t-47.5 -246t-38 -210q-6 -40 -5 -72q0 -41 10 -67q12 -12 24.5 -6t23.5 19.5t21.5 29t20.5 25.5 q57 78 94 184.5t64.5 225t54.5 242.5t63 237q10 31 24.5 58.5t33.5 47.5q24 24 54 24q18 0 37 -8q52 -24 81 -93q12 -29 15 -52.5t3 -45t-3 -45t-5 -50.5q-16 -115 -29.5 -226.5t-19.5 -213.5q-5 -88 -5 -167v-26q1 -90 13 -160q14 -25 37 -2t51.5 79.5t59 139t60.5 179 t57.5 199t47 199.5t29.5 181q8 70 8 122v20t2 22t4 23q16 53 56 57h6q38 0 76 -47q31 -37 51 -94q23 -53 28 -108.5t9 -108.5q1 -25 1 -50q-1 -84 -11 -162q-14 -100 -44 -196q-33 -100 -69.5 -188t-81.5 -169t-96.5 -157t-110.5 -152q-78 -88 -159 -102q-25 -4 -49 -4 q-52 0 -100 22q-68 32 -115.5 96t-53.5 136q-37 -41 -67.5 -85t-63.5 -81t-73 -60.5t-91 -25.5q-86 0 -139.5 65.5t-81.5 170.5q-23 111 -23 217q0 44 4 87z" />
<glyph unicode="X" horiz-adv-x="1095" d="M9 32q3 48 22 107q27 88 71.5 170t102 156t120 137.5t121.5 116.5q-14 96 -26 190.5t-35 181.5t-61.5 161.5t-106.5 131.5q-8 16 -9 32t15 22q39 16 81 17h6q39 0 76 -11q40 -12 74 -35t58 -53q27 -29 57.5 -74t59.5 -105.5t53.5 -137.5t38.5 -171q41 27 88 63t90 79 t79 93t54 109q18 54 18 97v11q-2 46 -9 76.5t-5 47t33 20.5q41 0 73 -40t50.5 -96t23.5 -116q1 -17 2 -33q0 -40 -10 -71q-18 -82 -62 -149.5t-102.5 -126t-127 -111.5t-134.5 -107q10 -102 28 -223t58 -221q10 -39 30 -50t41.5 -10t44 11t40 15t28.5 -1t11 -35 q-18 -109 -145 -184q-60 -35 -125 -35q-11 0 -22 1q-77 7 -126 77q-37 57 -62.5 118.5t-43 125t-30.5 125t-26 118.5q-59 -43 -113 -112.5t-99.5 -147t-75 -155.5t-35.5 -135q-6 -20 -21.5 -27.5t-34 -2.5t-37 19.5t-30.5 36.5q-34 58 -34 103v7z" />
<glyph unicode="Y" horiz-adv-x="835" d="M8 614q2 127 31 252t82 236.5t121 185.5q20 23 43.5 41.5t58.5 20.5q23 2 46.5 -10.5t42 -34t27.5 -48t5 -55.5q-6 -41 -32.5 -86t-43.5 -80q-27 -59 -49.5 -128.5t-36.5 -140.5t-21 -137q-2 -28 -2 -54q0 -34 5 -64q6 -43 25.5 -72.5t46 -42t57 -4.5t59.5 39 q8 96 33.5 216t63.5 238t86.5 220t103.5 164q55 69 136 69q32 0 67 -10q18 -6 38.5 -18.5t35 -29.5t19.5 -37.5t-5 -43.5q-117 -154 -178.5 -326t-90 -344t-37 -337.5t-22.5 -309.5q-6 -106 -54 -170.5t-121 -93.5q-63 -25 -136 -25h-23q-86 5 -166 37q-68 27 -110.5 71 t-65 99.5t-25.5 115.5v17q0 52 13 103q16 49 55 73q33 20 68 20q6 0 12 -1q37 -6 38 -33.5t-7 -62.5q-11 -32 -11 -58q0 -22 7 -40q16 -41 51 -65t79 -29q13 -1 25 -1q28 0 51 8q47 20 63.5 62.5t17.5 95.5v15q0 46 -5 97q-4 35 -4 68q0 22 2 43q-63 -41 -127 -54 q-27 -5 -53 -5q-36 0 -71 10q-58 19 -107 70t-80 135q-31 96 -31 215v14z" />
<glyph unicode="Z" horiz-adv-x="1191" d="M39 61q86 115 183 251.5t198.5 275.5t204 275t198.5 253q12 14 22.5 28.5t13.5 27t-6 19.5t-36 7h-80t-93 -10t-95 -35t-84 -72q-20 -16 -39.5 -31.5t-42.5 -27.5q-29 -14 -50.5 7.5t-21.5 60.5q2 41 15.5 76.5t31.5 68.5q14 35 36 74t50.5 72.5t64.5 56t79 24.5 q92 -12 177 -12q25 0 51 1q108 5 197 11q67 4 121 4h36q68 -2 108 -32q33 -25 40 -55.5t-1 -61.5t-26.5 -60.5t-37.5 -54.5q-186 -240 -365 -493.5t-364 -481.5q-23 -27 -24.5 -44t35.5 -25q41 -2 97 -3h14q48 0 102 6q60 7 116 26.5t97 58.5q31 20 62.5 48t55.5 54 q35 14 46.5 0t9.5 -39.5t-11.5 -54.5t-15.5 -43q-37 -80 -63.5 -138.5t-67.5 -95t-113.5 -54t-201.5 -19.5q-126 0 -262 -5q-46 -2 -89 -2q-88 0 -170 7q-18 2 -36.5 4t-36.5 10q-60 23 -60 67q0 32 31 76z" />
<glyph unicode="a" horiz-adv-x="845" d="M26 432q16 116 66.5 216t135.5 172.5t202 94.5q35 10 73 10q15 1 29 -1q54 -6 100 -31t79.5 -65t40.5 -93q33 -39 45 -93q7 -29 7 -58q0 -24 -5 -47q-25 -133 -49.5 -255t-38.5 -259q-15 -37 -55 -45q-12 -2 -25 -2q-27 0 -53 12q-38 16 -66 55q-25 34 -25 82v14 q-68 -74 -105.5 -100.5t-72.5 -34.5q-16 -2 -32 -2q-29 0 -57 7q-44 11 -81 38t-63.5 67t-38.5 91q-17 71 -17 143q0 42 6 84zM274 364v-15q0 -28 6 -50q8 -29 27 -37q20 -9 38 -9q13 0 25 4q30 11 54.5 45t47 90.5t40.5 127.5q2 6 8 32t9 52.5t2 48t-13 21.5 q-35 -2 -65.5 -17.5t-56 -38t-46 -51t-35.5 -55.5q-18 -31 -28.5 -71.5t-12.5 -76.5z" />
<glyph unicode="b" horiz-adv-x="835" d="M12 222.5q2 33.5 6.5 67.5t8.5 66.5t6 59.5q12 84 24.5 158.5t27.5 147.5t32.5 148.5t38.5 161.5q18 63 36.5 128t41.5 116q22 50 55 78q24 20 56 21q12 0 24 -3q68 0 101.5 -26.5t43.5 -69.5q5 -23 5 -48q0 -24 -4 -50q-9 -54 -25.5 -110t-34 -108.5t-25.5 -91.5 q69 18 124 18q40 0 74 -10q79 -22 123 -80.5t54 -143.5q4 -30 3 -61q0 -57 -12 -117q-18 -93 -63 -186t-113.5 -166t-157.5 -118q-85 -43 -185 -43h-9q-57 6 -102 18.5t-78 34t-51.5 57t-22.5 91.5q-4 27 -2 60.5zM282 267q-1 -38 13 -44q14 -3 27 -3q32 0 61 20 q41 30 70.5 80.5t47 112t19.5 116.5v7q0 40 -22 58q-24 20 -56 20.5t-61 -17t-35 -48.5q-12 -47 -27.5 -104t-25.5 -108.5t-11 -89.5z" />
<glyph unicode="c" horiz-adv-x="837" d="M16 248q-5 39 -5 78q-1 42 5 82q10 80 36 154.5t66 143t89 128.5q37 41 83 77.5t97 62.5q51 28 105 38q28 5 56 5q27 0 54 -5q76 -23 127 -81.5t57 -144.5q1 -13 1 -26q0 -111 -62 -203q-12 -23 -33.5 -42t-46 -29.5t-50.5 -10.5t-46 19q-37 33 -37 75q0 11 2 23 q10 37 23.5 83t19.5 83q-86 -45 -140.5 -97.5t-86 -106.5t-46 -109.5t-22.5 -104.5q-2 -15 -2 -29q0 -45 26 -77q34 -40 93 -46q6 0 11 -1q40 -1 74 13q38 14 72.5 37t67.5 50.5t68 52.5q4 2 18.5 14.5t29.5 23.5t29.5 16t20.5 -3q23 -27 18.5 -57.5t-18.5 -59.5 q-37 -76 -94.5 -143.5t-128 -113.5t-151.5 -62q-28 -6 -56 -6q-53 0 -107 20q-96 31 -147 104.5t-70 174.5z" />
<glyph unicode="d" horiz-adv-x="854" d="M24 414q7 84 32.5 160.5t69.5 146.5t105 125q83 72 173 94q29 7 58 8q62 0 126 -33q20 55 36.5 120t35 123.5t43 103.5t61.5 63q25 19 59 19q14 0 29 -3q45 -12 69.5 -39.5t32.5 -62.5q4 -18 4 -37q0 -18 -4 -37q-8 -39 -26 -71q-92 -236 -140.5 -482.5t-58.5 -531.5 q0 -10 -2 -19.5t-2 -19.5q-10 -25 -25.5 -42t-46.5 -15q-41 2 -68.5 21.5t-46 47t-27.5 61t-13 64.5q-25 -53 -66 -101t-104 -65q-34 -15 -66 -15q-22 1 -42 7q-50 16 -89 55t-65.5 91.5t-36.5 97.5q-8 52 -8 104q0 31 3 62zM256 354q0 -27 10 -45t27.5 -23t40 6t47.5 42 q18 18 40.5 43.5t44 67.5t42.5 102.5t35 148.5q-55 -6 -108.5 -38.5t-94.5 -81.5q-40 -50 -64 -108q-20 -50 -21 -98q0 -8 1 -16z" />
<glyph unicode="e" horiz-adv-x="772" d="M3 362v6q0 104 33 202q34 100 99.5 184t155.5 141q53 33 123 45q35 6 68 6t65 -6q90 -16 140 -80q46 -60 46 -144v-14q-2 -78 -33.5 -140t-85.5 -109q-72 -59 -148 -95q-52 -25 -119 -25q-30 0 -62 5q-4 -29 4 -55.5t24.5 -45t40 -25.5t52.5 3q61 18 109 46t97 56 q33 23 60.5 26t42 -9t14.5 -37t-22 -57q-55 -94 -136.5 -158t-185.5 -92q-38 -10 -75 -10q-62 0 -120 28q-94 45 -143 142q-43 104 -44 212zM309 510q47 0 90 18.5t73 46t43 61.5q7 17 7 33q0 15 -6 29q-17 10 -35 10q-13 0 -27 -5q-34 -13 -65 -42.5t-53.5 -70.5t-26.5 -80 z" />
<glyph unicode="f" horiz-adv-x="696" d="M-103.5 270q-13.5 31 9.5 54q37 23 71.5 32t75.5 17q12 57 30.5 132t45.5 152.5t62.5 151.5t84 129t107.5 85q43 22 95 22q20 0 40 -3q94 -16 164 -108q33 -35 40 -89q2 -17 2 -33q0 -35 -10 -66q-16 -44 -50 -63q-13 -7 -28 -7q-26 0 -58 20q-12 10 -13.5 18.5t2.5 13.5 t7 7l8 6q-20 29 -43 20t-47.5 -41t-48 -80t-42 -96t-32 -90t-17.5 -63q14 -2 36 -4t45.5 -3t43 -3t29.5 -6q88 -29 102 -111q4 -17 4 -33q0 -29 -16 -52q-23 -34 -76 -34q-16 -2 -43.5 0t-57.5 5.5t-58.5 6.5t-49.5 5q-10 -25 -18 -84.5t-14.5 -133t-10.5 -153.5t-6 -145 q-6 -66 -27.5 -89.5t-47 -16.5t-53.5 39t-46 79q-25 74 -36 137.5t-14 126.5q-2 48 -2 97v33v46q0 47 -1 99q-23 8 -47.5 13t-46.5 13q-31 16 -44.5 47z" />
<glyph unicode="g" horiz-adv-x="770" d="M6 -135q-1 9 -1 17q0 33 13 52q17 25 43.5 33t58.5 -1t56 -34q12 -12 18.5 -17t10.5 -8t9 -6t17 -16q31 -18 54.5 -7t38 36t22.5 55.5t8 53.5h-11q-89 0 -151 31q-67 32 -109 87.5t-61 128.5q-16 67 -16 142v16q6 135 54.5 231.5t125.5 155.5q31 27 74 46.5t88 29.5 t88 10t74 -14q46 17 87 17q32 0 61 -11q63 -25 81 -90q10 -23 11 -59v-5q0 -34 -6 -73q-5 -43 -12 -88.5t-11 -85.5q-23 -137 -47.5 -281.5t-62.5 -268.5t-94 -214t-142 -117q-25 -8 -53 -8q-26 0 -54 7q-57 15 -109.5 52t-93 90t-59.5 113zM275 305q5 -45 28 -74 q25 -29 47.5 -15.5t40 52.5t31.5 93.5t24.5 109.5t15.5 104.5t7 73.5q-11 4 -22 4q-20 0 -39 -12q-31 -18 -57.5 -55t-46 -86t-26.5 -100q-5 -30 -5 -58q0 -19 2 -37z" />
<glyph unicode="h" horiz-adv-x="876" d="M22 372q6 106 25 211t41 191q12 43 27.5 93.5t33 101.5t35 100t31.5 90q14 37 32.5 73t41 67.5t51.5 56t66 35.5q15 2 28 2q32 1 58 -13q36 -20 54.5 -55t18.5 -81t-22 -91q-10 -35 -34 -93.5t-48.5 -120.5t-43 -117.5t-18.5 -86.5q31 31 65 61.5t72 51.5q40 22 84 27 q9 1 17 1q36 0 74 -16q95 -41 121 -134q11 -39 11 -88q0 -67 -20 -153q-16 -57 -34.5 -118.5l-37 -123t-35 -121t-28.5 -110.5q-8 -37 -34.5 -38t-55.5 18.5t-52.5 49.5t-27.5 52q-20 43 -22 90v19q0 39 6 81q8 52 21.5 111.5t23.5 126.5q2 10 5 21.5t1 18.5t-14.5 7 t-38.5 -10q-78 -53 -122 -105.5t-71.5 -107.5t-46 -118.5t-44.5 -141.5q-14 -49 -46 -92q-14 -25 -45 -17.5t-53 37.5q-36 64 -46 158q-6 58 -6 120q0 40 2 80z" />
<glyph unicode="i" horiz-adv-x="415" d="M33 334q0 119 8 222t51 200q25 56 64 80q36 23 72 22h6q38 -2 73 -30.5t53 -82.5q13 -42 13 -87q-1 -5 -1 -10q-2 -50 -12 -93q-29 -127 -57.5 -269.5t-48.5 -271.5q-14 -35 -48 -35l-1 1q-35 0 -70 36q-29 29 -47 68t-29.5 82t-16.5 86t-9 82zM167 1068.5 q3 29.5 17.5 54t37 41t50.5 16.5h6q50 0 96 -31q50 -33 66 -84q12 -29 11 -59.5t-12 -55t-30.5 -42t-46.5 -19.5q-29 -2 -57.5 7t-54 25.5t-46 40t-30.5 50.5t-7 56.5z" />
<glyph unicode="j" horiz-adv-x="438" d="M-424 -215q2 31 2 46t2 26.5t6 20.5t15 28q20 23 44.5 30t46 -3.5t34.5 -38.5q9 -20 9 -50q0 -10 -1 -20q2 -25 9 -48.5t28 -45.5q25 -25 49 -27t46.5 10.5t40 34t25.5 45.5q23 51 43.5 132t38 178.5t28.5 202t15 200.5q4 29 8.5 73t10.5 91t17 91t35 72.5t60 36.5 q7 1 15 1q32 0 76 -23q72 -33 89 -96q14 -52 14 -106q0 -12 -1 -25q-8 -63 -17.5 -136t-23.5 -133q-29 -168 -60.5 -339t-95.5 -320q-37 -80 -95 -125t-123 -60q-33 -7 -67 -7q-32 0 -65 7q-67 13 -121.5 49.5t-92.5 95t-44 132.5zM200 1100.5q5 27.5 20.5 49t38.5 35 t52 13.5q9 1 17 1q51 0 94 -32q51 -37 65 -88q6 -29 -1 -55.5t-23.5 -48t-39 -33.5t-46.5 -12q-51 2 -105.5 34.5t-70.5 79.5q-6 29 -1 56.5z" />
<glyph unicode="k" horiz-adv-x="780" d="M13 260v39q0 39 1 75q2 54 2 87q6 104 29 225t55.5 238.5t74.5 222t87 174.5q27 37 63.5 61.5t74.5 29.5q9 1 17 1q28 -1 55 -13q34 -16 52 -61q11 -38 11 -77q0 -11 -1 -23q-4 -51 -26 -92q-6 -18 -26.5 -71.5t-45 -114t-45 -114.5t-26.5 -77q23 29 55.5 56.5t69 48 t73.5 28.5q18 4 35.5 4t34.5 -4q47 -14 75.5 -40.5t45.5 -74.5q11 -35 11 -71q0 -10 -1 -21q-4 -47 -21.5 -90t-46 -81t-61.5 -64q-23 -18 -45.5 -34.5t-44.5 -33.5q10 -92 39.5 -165.5t71.5 -128t94.5 -90.5t107.5 -56q25 -10 35 -22.5t9 -26t-12 -23.5t-30 -16 q-50 -8 -96 -8q-60 -1 -115 13q-96 24 -168.5 83t-118 150.5t-55.5 207.5q-39 4 -56.5 -7t-17.5 -48q-8 -45 -14 -88t-16 -86q-10 -45 -35 -80q-28 -15 -50 -15q-14 -1 -25 5q-30 16 -47 56t-24.5 96.5t-8.5 115.5zM283 469q57 8 93 22.5t59.5 33t35.5 39t23 40.5 q2 16 1 32.5t-8.5 28t-19.5 14.5t-31 -7q-23 -18 -40 -31.5t-34.5 -34t-35.5 -52.5t-43 -85z" />
<glyph unicode="l" horiz-adv-x="376" d="M18 320q-6 66 -6 135q0 98 12 197q20 169 68.5 331t120.5 291q23 33 49.5 64.5t59.5 45.5q30 18 59 18q14 0 28 -4q42 -14 71 -52q28 -36 38 -90q3 -18 3 -36q0 -35 -13 -67q-55 -127 -100.5 -235.5t-79 -231.5t-54 -273.5t-26.5 -359.5q-6 -33 -21 -55q-28 -28 -68 -28 h-8q-45 3 -67 55q-52 133 -66 295z" />
<glyph unicode="m" horiz-adv-x="1243" d="M10 246q2 72 14.5 140.5t28 127.5t23.5 107q2 82 25.5 152.5t63.5 106.5q31 28 70 27q11 0 23 -2q52 -10 113 -90q41 51 100 77q50 22 100 22h17q58 -4 107.5 -38t70.5 -98q40 55 106 84q58 25 116 25h16q66 -4 119 -45t67 -123q9 -44 9 -97q0 -34 -4 -72 q-9 -97 -31.5 -198.5t-54.5 -193.5t-62 -154q-27 -29 -53 -29q-4 1 -7 1q-29 4 -53.5 26.5t-43 55t-26.5 61.5q-15 42 -15 84v5q1 44 8 86t19.5 83t22.5 84q2 14 7 41.5t5 53.5t-8 40t-31 2q-31 -18 -60.5 -71.5t-56 -120t-48 -137t-33.5 -124.5q-10 -35 -25.5 -73.5 t-37 -64t-50.5 -29.5h-5q-27 0 -60 34q-33 37 -39 78t-11 84q-2 28 -2 56q0 76 12 146q16 96 44 191q6 18 -2.5 27.5t-21.5 11.5t-27.5 -4t-20.5 -18q-20 -25 -37.5 -46.5t-33 -52t-31 -73.5t-31.5 -109q-18 -63 -32.5 -125.5t-35.5 -126.5q-18 -43 -46.5 -57t-59.5 -4 t-57.5 40.5t-40.5 73.5q-14 61 -14 123q1 9 1 19z" />
<glyph unicode="n" horiz-adv-x="868" d="M12 215q-2 33 -2 68q0 49 4 102q8 90 25.5 175t42 160t51.5 124q27 31 78 48q43 14 85 14h14q48 -4 79 -30q22 -19 22 -56q0 -15 -3 -32q145 87 241 87h6q97 -3 145 -73q47 -68 47 -184q0 -121 -44 -266q-23 -72 -59.5 -150.5t-55.5 -166.5q-20 -57 -55 -63l-14 -2 q-27 0 -53 20q-32 26 -52 76q-18 42 -19 87q0 8 1 17q-2 27 1 63.5t9 74.5t14 76t15 67q6 29 7 57.5t-6.5 50t-23.5 33.5t-43 6q-55 -25 -93 -62.5t-66.5 -93t-49 -127t-41.5 -163.5q-6 -23 -12 -53.5t-17.5 -58.5t-30 -44t-48.5 -12q-45 29 -69 90t-30 141z" />
<glyph unicode="o" horiz-adv-x="792" d="M6 274q-1 30 -1 59q-1 173 51 301q60 150 182 240q80 56 168 64q16 2 32 1q70 0 130 -30q74 -37 124.5 -115.5t52.5 -193.5q0 -84 -13 -178t-46 -181t-87 -158t-134 -106q-71 -24 -136 -24q-18 -1 -35 1q-81 8 -144.5 49.5t-101.5 111t-42 159.5zM270 299 q0 -45 16.5 -67.5t38 -26.5t44 7t34.5 32q45 66 67 132t34 146q0 10 1 41t-6 59.5t-24.5 46t-50.5 3.5q-43 -18 -72.5 -65.5t-47.5 -102.5q-20 -56 -28 -112q-7 -46 -6 -78v-15z" />
<glyph unicode="p" horiz-adv-x="858" d="M-21 -136q1 85 9 203.5t24.5 255t39 257t49 210t57.5 113.5q40 33 85 33q72 0 158 -82q41 33 86 50q29 10 62 10q18 0 37 -3q104 -18 158.5 -93t72.5 -183q7 -49 7 -97q0 -80 -20 -156q-34 -122 -110 -210t-186 -127q-57 -20 -120 -20q-60 0 -126 18 q-16 -111 -39.5 -218.5t-68.5 -184.5q-27 -31 -54.5 -28t-51 24.5t-41 56.5t-21.5 69q-7 14 -7 83v19zM305 252q31 -12 56.5 -9t47 16t38 32.5t28.5 36.5q43 66 60.5 139.5t23.5 159.5q-2 10 -5 23.5t-9 23.5t-15.5 15t-21.5 1q-47 -16 -87 -45t-56 -80q-6 -35 -15.5 -78 t-18.5 -86t-16.5 -82.5t-9.5 -66.5z" />
<glyph unicode="q" horiz-adv-x="831" d="M-2 337q0 118 48 230.5t140.5 203.5t221.5 128q39 12 80 19q27 4 54 4q12 0 24 -1q38 -3 70 -17.5t50 -41.5q57 -14 83 -53t32 -85q3 -20 3 -39q0 -26 -5 -52q-8 -45 -15 -72q-31 -84 -68.5 -174t-67.5 -181t-45 -177q-7 -42 -7 -80q0 -42 8 -80q29 70 83 105 q42 28 92 28q13 0 28 -2q35 -4 57.5 -18.5t29.5 -35t-3 -42t-41 -37.5q-41 -18 -67.5 -40t-45 -47.5t-34 -58t-33.5 -71.5q-35 -63 -100 -70q-10 -2 -18 -2q-57 0 -110 41q-37 31 -59.5 79t-31.5 106q-7 43 -7 89q0 15 1 31q3 62 20 123q-53 -23 -95 -30q-17 -3 -33 -3 q-23 0 -43 6q-34 9 -68 35.5t-73 73.5q-55 90 -55 208zM266 338q6 -31 23.5 -48.5t43 -14t52.5 35.5q20 45 35.5 86t29 82t30.5 82t46 84h-7q-45 0 -84 -23q-42 -24 -75.5 -61t-56 -79t-31.5 -79q-8 -23 -8 -45q0 -10 2 -20z" />
<glyph unicode="r" horiz-adv-x="757" d="M16 225q4 78 15.5 163t26 169t22.5 156q12 53 41 102t84 57q29 9 56 9q7 -1 15 -1q34 -4 60 -21t41.5 -45.5t15.5 -65.5q20 16 38 35.5t37 39t46 37t66 29.5q22 4 42 4q52 0 87 -27q49 -37 65 -94q8 -28 8 -58t-8 -62q-16 -62 -65 -99q-25 -25 -59 -31q-17 -3 -33 -3 q-15 0 -31 3q-30 6 -51 22.5t-21 37.5q-27 4 -53.5 -12.5t-51 -47t-44 -72.5t-31.5 -90q-14 -51 -30.5 -105t-35 -103.5t-37 -87t-34.5 -52.5q-20 -27 -64 -43q-8 -1 -15 -1q-40 0 -62 29q-26 34 -34 92q-7 41 -7 92q0 21 1 44z" />
<glyph unicode="s" horiz-adv-x="722" d="M-15 194q5 38 27.5 63.5t62.5 32.5q10 2 21 2q33 0 74 -16q29 -14 40 -30.5t16 -31.5t7.5 -26.5t12.5 -17.5q38 -14 65 -13q18 -1 31 5q32 15 32 51q0 38 -34 88q-34 49 -102 94q-126 71 -148 175q-4 21 -5 43q0 85 67 182q33 47 85 81.5t111.5 53t120.5 20.5h13 q54 0 102 -15q54 -17 92.5 -55t52.5 -100q5 -25 5 -47q0 -29 -9 -52q-16 -40 -46 -62.5t-65.5 -25.5t-61.5 13q-26 14 -35 46q-3 9 -3 20q0 26 16 63q-19 29 -53 29h-5q-38 -2 -66 -26q-30 -26 -29 -70q0 -40 47 -84q70 -41 121 -84t78.5 -91.5t30.5 -106.5v-14 q0 -53 -19 -116q-35 -80 -95 -131q-62 -51 -134 -73q-57 -17 -117 -16q-17 0 -34 1q-79 6 -149 39q-47 18 -75.5 52t-39.5 73q-8 27 -8 53q0 12 2 24z" />
<glyph unicode="t" horiz-adv-x="403" d="M-160 1032q-1 4 -1 9q0 26 30 49q25 20 58.5 30t70.5 15q6 2 32.5 4t58.5 5t60.5 5t36.5 2q18 41 36 85t42 80t58 58q27 17 67 16q11 0 23 -1q59 -8 80.5 -33t21.5 -58.5t-13.5 -73.5t-23.5 -77q23 -1 49 -1h27h7q37 0 68 -10q34 -10 52 -38q12 -19 12 -54q0 -16 -2 -34 q-12 -47 -40.5 -66.5t-65.5 -25.5q-25 -4 -53 -3q-13 1 -26 1q-19 1 -38 1q-22 0 -43 -2q-78 -213 -113 -377.5t-51 -282.5t-26.5 -188.5t-34.5 -95.5q-18 -23 -47 -23q-7 0 -15 2q-39 8 -61 48q-45 92 -51.5 181t-6.5 188q2 57 12.5 134t25 155.5t30.5 153.5t33 130 q-20 2 -54 6t-69 9.5t-63.5 10.5t-41.5 11q-45 25 -51 55z" />
<glyph unicode="u" horiz-adv-x="849" d="M10 444q2 64 13.5 131.5t32 133t50.5 116.5q42 65 92 87q19 8 40 9q35 0 75 -22q67 -40 67 -91t-26 -118q-23 -43 -40 -95t-27.5 -104.5t-14.5 -101.5q-2 -24 -2 -45.5t2 -40.5q6 -45 29 -43t35 25q63 66 104 135t70 166q10 41 24.5 90t37 94t55 78t80.5 43q10 1 19 1 q41 0 76 -28q42 -35 52 -88q6 -28 6 -56t-6 -54q-4 -41 -13.5 -81t-19.5 -81q-20 -86 -40.5 -169t-45.5 -165q-8 -23 -16 -55.5t-20.5 -62t-32 -48t-48.5 -12.5q-35 14 -57 38.5t-36.5 55.5t-23 64.5t-16.5 64.5q-39 -57 -75.5 -103t-79.5 -94q-47 -33 -90 -33q-12 1 -24 3 q-54 12 -95 60t-69.5 124t-37.5 162q-4 35 -4 80v30z" />
<glyph unicode="v" horiz-adv-x="802" d="M14 526q2 104 22.5 197.5t55.5 153.5q29 66 83 90q21 9 42 9q35 0 72 -24q31 -26 43 -58q11 -29 11 -60v-6q-1 -34 -10 -68.5t-18 -67.5q-20 -63 -33.5 -136t-31.5 -136q-12 -23 -13 -71v-9q0 -42 8 -77q9 -38 33 -48q4 -2 7 -2q22 0 53 45q90 117 138 255t56 267 q1 13 1 27q0 35 -4 71q-2 16 -2 31q0 34 8 64q22 54 67 54h4q48 -3 113 -46q66 -53 85 -137q11 -48 11 -101q0 -39 -6 -79q-14 -96 -53 -195.5t-87 -184.5t-97.5 -147.5t-84.5 -83.5q-29 -29 -81 -50t-93 -34q-15 -2 -29 -2q-64 0 -111 38q-58 46 -94 127q-35 82 -51 186 q-14 93 -14 184v24z" />
<glyph unicode="w" horiz-adv-x="1255" d="M14 252q-3 35 -4 71q0 69 12 139q18 106 60.5 205t93.5 167q34 36 66 64q27 23 66 23q9 0 18 -1q23 -4 44 -16.5t38.5 -31t26.5 -41t5 -43.5q-25 -47 -64.5 -113.5t-74.5 -143t-53 -159.5q-9 -42 -9 -82t9 -79q18 -27 43.5 -3.5t53.5 78t58.5 129t61.5 151.5t59.5 146.5 t55.5 110.5q30 51 74 71q16 7 32 8q29 0 59 -23q61 -47 66 -117q0 -35 -10 -76q-8 -35 -17.5 -68.5t-19.5 -68.5q-16 -59 -30.5 -118.5t-28.5 -119.5q-4 -14 -8.5 -32.5t-4.5 -38t4 -36t21 -28.5q29 -4 57.5 22.5t44.5 49.5q67 98 91 210q14 63 13 137q0 56 -8 118 q-4 37 -4 72.5t13 68.5q16 36 42 54q20 14 50 13q10 0 20 -1q43 -6 74 -31t51.5 -59.5t32.5 -74.5t16 -77q7 -50 7 -98q0 -20 -1 -38q-4 -66 -18 -124q-23 -74 -51.5 -143.5t-71.5 -131.5q-35 -51 -80 -92t-104 -69q-37 -23 -94 -29q-21 -4 -42 -4q-55 -1 -105 27 q-68 38 -122 120q-10 16 -18 33.5t-18 40.5q-27 -25 -48.5 -52.5t-44 -53t-48 -49t-58.5 -38.5q-29 -14 -59 -14q-28 0 -58 12q-62 25 -102 93q-50 80 -60 184z" />
<glyph unicode="x" horiz-adv-x="841" d="M-28 66q10 56 34 120q18 37 46 78t61.5 81t71.5 79t77 72q-10 57 -27.5 112.5t-58.5 114.5q-18 20 -47 21t-51 8q-18 16 -21.5 32.5t-1.5 36.5q4 45 29 80t60.5 54.5t78.5 21.5h7l79 -19q74 -41 103.5 -104t58.5 -141q57 45 97 89t71 97q10 16 19.5 35.5t21.5 36.5 q23 23 54.5 20.5t60.5 -30.5q25 -27 34 -62q8 -32 8 -64v-7q-1 -36 -10.5 -72.5t-23.5 -67.5q-29 -53 -53.5 -91t-52 -67.5t-62.5 -57.5t-80 -60q6 -23 16.5 -67t25.5 -88t35.5 -74.5t47.5 -26.5q7 1 14 1q28 -1 52 -13q27 -14 26 -47v-9q0 -33 -17.5 -65.5t-48.5 -56.5 q-32 -24 -73 -34q-19 -5 -39 -4q-23 0 -47 6q-31 2 -62.5 33t-62.5 75t-55.5 94t-38.5 91q-35 -14 -76 -51t-79 -83t-67.5 -93t-44.5 -80q-10 -25 -37.5 -14.5t-39.5 43.5q-16 42 -16 81q1 19 4 36z" />
<glyph unicode="y" horiz-adv-x="880" d="M14 295q2 84 17.5 179t44 185.5t67.5 149.5q43 53 99 75q17 6 36 6q37 0 76 -30q37 -38 37 -75q0 -5 -1 -9q-5 -41 -17 -88q-10 -31 -22.5 -69.5t-26 -78.5t-25.5 -80t-20 -71q-6 -23 -11.5 -55.5t-5.5 -59t9.5 -42t31.5 -5.5q16 12 37.5 30.5t43.5 41.5t42 46.5t35 43.5 q31 51 49 113.5t35.5 125t41 119t64.5 95.5q10 12 25.5 21t28.5 16q27 8 53 1.5t47.5 -21.5t36 -39.5t16.5 -55.5q3 -27 3 -54q0 -40 -7 -79q-25 -102 -54.5 -212t-62 -219.5t-68.5 -215t-75 -199.5q-33 -72 -76 -134.5t-121 -84.5q-24 -7 -51 -7q-32 0 -68 11 q-63 20 -110 70q-47 51 -64 116q-10 33 -10 65q0 29 8 56q16 52 55 52h1q41 -1 84 -54q14 -16 26.5 -33.5t28.5 -40.5q25 -18 48.5 10.5t44 82t35.5 118t26 115.5q-47 -33 -83 -68.5t-83 -54.5q-33 -13 -66 -13l-16 1q-41 4 -76 25.5t-62.5 59.5t-39.5 89q-11 40 -11 111v18 z" />
<glyph unicode="z" horiz-adv-x="819" d="M-18 -156q-2 18 -2 32q0 30 9 42q13 16 35.5 10t54.5 -25.5t62 -37.5q33 -23 70 -25h10q31 0 57 10q30 12 54 38t33 63q2 12 4 31.5t4 41t3 40t3 30.5q-12 0 -32.5 -8t-44 -17.5t-46.5 -17.5t-37 -10h-10q-44 0 -73 33q-24 28 -24 62q0 12 3 24q4 35 21.5 60.5t43.5 43.5 q31 20 81 53t101.5 73t93.5 84t58 87q12 29 9 53.5t-42 24.5q-129 -14 -217 -75.5t-164 -147.5q-29 -20 -56.5 -7t-39.5 52q-9 35 -9 68q1 41 15 77q26 66 76 119q51 49 113.5 88t130 63.5t136.5 31.5q21 2 42 2q48 0 94 -11q59 -18 99 -57t61 -88q22 -50 26 -106 q1 -13 2 -25q0 -43 -12 -86q-23 -98 -71.5 -183.5t-124.5 -146.5q33 -70 33 -153q-1 -10 -1 -20q-4 -95 -40.5 -182.5t-100 -155t-143.5 -91.5q-33 -9 -69 -9q-19 0 -37 2q-56 7 -106 35.5t-88 81t-48 129.5z" />
<glyph unicode="&#x2000;" horiz-adv-x="749" />
<glyph unicode="&#x2001;" horiz-adv-x="1498" />
<glyph unicode="&#x2002;" horiz-adv-x="749" />
<glyph unicode="&#x2003;" horiz-adv-x="1498" />
<glyph unicode="&#x2004;" horiz-adv-x="499" />
<glyph unicode="&#x2005;" horiz-adv-x="374" />
<glyph unicode="&#x2006;" horiz-adv-x="249" />
<glyph unicode="&#x2007;" horiz-adv-x="249" />
<glyph unicode="&#x2008;" horiz-adv-x="187" />
<glyph unicode="&#x2009;" horiz-adv-x="299" />
<glyph unicode="&#x200a;" horiz-adv-x="83" />
<glyph unicode="&#x202f;" horiz-adv-x="299" />
<glyph unicode="&#x205f;" horiz-adv-x="374" />
<glyph unicode="&#x25fc;" horiz-adv-x="993" d="M0 0v993h993v-993h-993z" />
</font>
</defs>
</svg>
